<svg xmlns="http://www.w3.org/2000/svg" viewBox="0 0 250 66">
  <path fill="#1A1919" fill-rule="evenodd" d="M97.204 21.862h3.646l6.329 16.12H103.6l-1.387-3.692h-6.534l-1.409 3.692h-3.35l6.284-16.12Zm1.776 3.236h-.048l-2.328 6.65h4.709l-2.333-6.65Zm9.882-3.236h3.489c3.463 0 7.595-.115 7.595 4.368 0 1.892-1.269 3.46-3.324 3.74v.042c.878.07 1.385.95 1.71 1.665l2.586 6.307h-3.604l-1.938-5.036c-.466-1.2-.876-1.663-2.241-1.663h-1.041v6.699h-3.232V21.862Zm3.232 6.886h1.066c1.591 0 3.418-.234 3.418-2.243 0-1.939-1.803-2.102-3.418-2.102h-1.066v4.345Zm14.019-4.345h-4.619v-2.541h12.472v2.541h-4.624v13.581h-3.229V24.403m18.565.416a8.344 8.344 0 0 0-3.278-.694c-1.109 0-2.542.487-2.542 2.242 0 2.794 7.069 1.615 7.069 7.019 0 3.534-2.798 4.876-6.051 4.876-1.755 0-2.542-.229-4.134-.625l.297-2.911c1.113.602 2.381.995 3.651.995 1.224 0 2.863-.625 2.863-2.08 0-3.071-7.066-1.801-7.066-7.137 0-3.604 2.792-4.919 5.636-4.919 1.383 0 2.676.185 3.855.579l-.3 2.655m21.87 12.937c-1.177.275-2.449.504-3.673.504-5.218 0-8.845-2.61-8.845-8.063 0-5.516 3.372-8.612 8.845-8.612 1.062 0 2.472.208 3.648.672l-.23 2.724c-1.224-.694-2.331-.855-3.487-.855-3.326 0-5.404 2.54-5.404 5.844 0 3.279 2.03 5.751 5.473 5.751 1.272 0 2.768-.28 3.533-.67l.14 2.705m9.396-16.171c5.057 0 7.9 3.419 7.9 8.291s-2.798 8.384-7.9 8.384c-5.171 0-7.896-3.442-7.896-8.384s2.769-8.291 7.896-8.291m0 14.136c3.301 0 4.529-2.935 4.529-5.845 0-2.841-1.32-5.75-4.529-5.75-3.208 0-4.525 2.909-4.525 5.75 0 2.91 1.225 5.845 4.525 5.845m10.044-13.859h3.234v9.31c0 2.749.876 4.549 3.35 4.549 2.468 0 3.349-1.8 3.349-4.549v-9.31h3.231v10.303c0 4.317-2.448 6.097-6.58 6.097-4.134 0-6.584-1.78-6.584-6.097V21.862m15.588 0h3.971l6.141 12.059h.048V21.862h3.095v16.12h-3.949l-6.164-12.055h-.047v12.055h-3.095v-16.12m27.87 15.894c-1.175.275-2.447.504-3.67.504-5.22 0-8.846-2.61-8.846-8.063 0-5.516 3.372-8.612 8.846-8.612 1.061 0 2.469.208 3.645.672l-.227 2.724c-1.226-.694-2.332-.855-3.486-.855-3.325 0-5.406 2.54-5.406 5.844 0 3.279 2.03 5.751 5.474 5.751 1.268 0 2.77-.28 3.532-.67l.138 2.705m2.45.226h3.232v-16.12h-3.232zm5.771-16.12h3.232v13.579h6.26v2.541h-9.492v-16.12M90.968 44.957h9.516v2.537H94.2v3.975h5.752v2.541H94.2v4.525h6.329v2.541h-9.561V44.957m12.214 0h3.975l6.141 12.053h.046V44.957h3.095v16.119h-3.947l-6.169-12.055h-.045v12.055h-3.096V44.957m28.844 3.117c-1.247-.578-2.865-.853-4.162-.853-3.762 0-5.837 2.539-5.837 5.841 0 3.278 2.03 5.748 5.471 5.748.881 0 1.571-.091 2.125-.228v-4.203h-3.419v-2.541h6.511v8.683c-1.707.461-3.486.832-5.217.832-5.218 0-8.844-2.611-8.844-8.06 0-5.52 3.373-8.613 8.844-8.613 1.871 0 3.348.252 4.736.67l-.208 2.724m3.276-3.117h3.234v13.578h6.257v2.541h-9.491V44.957m17.203 0h3.65l6.329 16.121h-3.579l-1.388-3.695h-6.534l-1.407 3.695h-3.351l6.28-16.121Zm1.779 3.23h-.043l-2.336 6.653h4.712l-2.333-6.653Zm9.767-3.23h3.972l6.144 12.053h.044V44.957h3.096v16.119h-3.949l-6.168-12.055h-.045v12.055h-3.094V44.957m15.895 0h4.411c4.939 0 9.306 1.664 9.306 8.061 0 6.392-4.367 8.058-9.306 8.058h-4.411V44.957Zm3.233 13.578h1.801c2.7 0 5.312-2.008 5.312-5.517 0-3.514-2.612-5.522-5.312-5.522h-1.801v11.039ZM91.131 12.473c.375.162.913.305 1.604.305 1.098 0 2.326-.569 2.326-2.001 0-2.073-3.251-2.083-3.251-3.505 0-.915.804-1.219 1.536-1.219.477 0 .975.091 1.289.263l.112-.639c-.486-.182-1.046-.233-1.392-.233-1.249 0-2.243.71-2.243 1.848 0 1.859 3.25 2.032 3.25 3.424 0 1.007-.722 1.453-1.596 1.453-.66 0-1.148-.152-1.564-.417l-.071.721Zm9.396-4.997h-.64v2.864c0 .864-.365 1.889-1.534 1.889-.884 0-1.23-.628-1.23-1.604V7.476h-.638v3.311c0 1.138.486 1.991 1.766 1.991 1.078 0 1.464-.578 1.677-1.046h.021v.923h.618c-.04-.416-.04-.822-.04-1.218V7.476Zm1.682 7.313h.639v-3.016h.02c.316.669.803 1.005 1.616 1.005 1.423 0 2.132-1.177 2.132-2.712 0-1.575-.607-2.712-2.132-2.712-1.098 0-1.494.781-1.656 1.065h-.021l.041-.943h-.639v7.313Zm3.708-4.723c0 1.005-.315 2.163-1.534 2.163-1.139 0-1.535-1.219-1.535-2.163 0-.946.396-2.165 1.535-2.165 1.219 0 1.534 1.159 1.534 2.165Zm2.124 4.723h.638v-3.016h.021c.315.669.802 1.005 1.616 1.005 1.423 0 2.133-1.177 2.133-2.712 0-1.575-.609-2.712-2.133-2.712-1.098 0-1.494.781-1.656 1.065h-.02l.039-.943h-.638v7.313Zm3.708-4.723c0 1.005-.315 2.163-1.535 2.163-1.138 0-1.535-1.219-1.535-2.163 0-.946.397-2.165 1.535-2.165 1.22 0 1.535 1.159 1.535 2.165Zm1.827 0c0 1.412.74 2.712 2.418 2.712 1.676 0 2.417-1.3 2.417-2.712 0-1.413-.741-2.712-2.417-2.712-1.678 0-2.418 1.299-2.418 2.712Zm.7 0c0-1.199.6-2.165 1.718-2.165 1.117 0 1.717.966 1.717 2.165s-.6 2.163-1.717 2.163c-1.118 0-1.718-.964-1.718-2.163Zm5.517 2.589h.639v-2.559c0-.935.274-2.073 1.29-2.073.163 0 .335.02.467.061v-.669a1.862 1.862 0 0 0-.446-.061c-.662 0-1.098.537-1.332 1.116h-.019v-.994h-.64c.041.375.041.587.041 1.157v4.022Zm6.049-5.179h-1.178V6.003l-.64.224v1.249h-1.015v.547h1.015v3.028c0 .945.041 1.727 1.178 1.727.315 0 .63-.082.782-.143l-.04-.527a1.485 1.485 0 0 1-.59.121c-.518 0-.69-.385-.69-.853V8.023h1.178v-.547Zm4.706 4.368c-.304.192-.985.385-1.452.385-1.119 0-1.707-.883-1.707-1.982h3.544v-.323c0-1.392-.599-2.57-2.061-2.57-1.311 0-2.184 1.127-2.184 2.712 0 1.554.639 2.712 2.357 2.712.477 0 1.056-.102 1.503-.285v-.649Zm-3.159-2.143c0-.854.578-1.8 1.524-1.8.954 0 1.32.895 1.32 1.8h-2.844Zm9.065-4.664h-.64v3.312h-.019c-.092-.255-.6-.995-1.616-.995-1.525 0-2.133 1.137-2.133 2.712 0 1.535.71 2.712 2.133 2.712.741 0 1.27-.285 1.616-.944h.019v.821h.64V5.037Zm-3.708 5.029c0-1.006.315-2.165 1.534-2.165 1.138 0 1.534 1.219 1.534 2.165 0 .944-.396 2.163-1.534 2.163-1.219 0-1.534-1.158-1.534-2.163Zm11.272-2.59h-.64v2.864c0 .864-.366 1.889-1.534 1.889-.884 0-1.23-.628-1.23-1.604V7.476h-.638v3.311c0 1.138.486 1.991 1.767 1.991 1.076 0 1.462-.578 1.676-1.046h.02v.923h.619c-.04-.416-.04-.822-.04-1.218V7.476Zm1.259 5.058c.456.183.954.244 1.452.244.783 0 1.808-.376 1.808-1.472 0-1.697-2.55-1.576-2.55-2.54 0-.662.458-.865 1.118-.865.356 0 .813.092 1.147.244l.061-.558a4.08 4.08 0 0 0-1.279-.233c-.854 0-1.686.385-1.686 1.412 0 1.503 2.489 1.31 2.489 2.54 0 .588-.539.923-1.149.923-.498 0-.965-.131-1.35-.325l-.061.63Zm4.531.121h.638V7.476h-.638v5.179Zm0-6.561h.638v-.852h-.638v.852Zm2.35 6.561h.638V9.79c0-.862.367-1.889 1.536-1.889.884 0 1.229.63 1.229 1.605v3.149h.639V9.344c0-1.138-.487-1.99-1.767-1.99-1.078 0-1.463.578-1.678 1.045h-.019v-.923h-.618c.04.417.04.823.04 1.219v3.96Zm6.171-2.589c0-1.006.316-2.165 1.534-2.165 1.17 0 1.535.915 1.535 2.165 0 .944-.416 2.042-1.575 2.042-1.087 0-1.494-1.026-1.494-2.042Zm3.708-2.59h-.639v.588h-.02c-.478-.619-.925-.71-1.616-.71-1.525 0-2.133 1.137-2.133 2.712 0 1.148.528 2.589 2.184 2.589.661 0 1.229-.264 1.575-1.014h.02c0 1.461-.142 2.662-1.788 2.662a3.506 3.506 0 0 1-1.525-.367l-.05.64c.265.081.883.274 1.564.274 1.779 0 2.428-1.178 2.428-2.621V7.476Zm3.462 7.313h.637v-3.016h.021c.316.669.803 1.005 1.616 1.005 1.423 0 2.132-1.177 2.132-2.712 0-1.575-.608-2.712-2.132-2.712-1.098 0-1.495.781-1.657 1.065h-.02l.04-.943h-.637v7.313Zm3.707-4.723c0 1.005-.315 2.163-1.535 2.163-1.138 0-1.535-1.219-1.535-2.163 0-.946.397-2.165 1.535-2.165 1.22 0 1.535 1.159 1.535 2.165Zm6.185-2.59h-.639v2.864c0 .864-.365 1.889-1.534 1.889-.885 0-1.23-.628-1.23-1.604V7.476h-.639v3.311c0 1.138.487 1.991 1.767 1.991 1.077 0 1.463-.578 1.677-1.046h.02v.923h.619c-.041-.416-.041-.822-.041-1.218V7.476Zm1.682 5.179h.639v-.821h.02c.347.659.874.944 1.616.944 1.423 0 2.133-1.177 2.133-2.712 0-1.575-.609-2.712-2.133-2.712-1.017 0-1.524.74-1.616.995h-.02V5.037h-.639v7.618Zm3.707-2.589c0 1.005-.314 2.163-1.534 2.163-1.138 0-1.534-1.219-1.534-2.163 0-.946.367-2.165 1.534-2.165 1.22 0 1.534 1.159 1.534 2.165Zm2.165 2.589h.64V5.037h-.64v7.618Zm2.349 0h.638V7.476h-.638v5.179Zm0-6.561h.639v-.852h-.639v.852Zm5.838 1.462a3.892 3.892 0 0 0-1.251-.202c-1.532 0-2.558 1.116-2.558 2.712 0 1.443.811 2.712 2.478 2.712.486 0 .893-.032 1.331-.183l-.062-.599c-.385.142-.762.233-1.168.233-1.169 0-1.88-.985-1.88-2.163 0-1.26.702-2.165 1.95-2.165.346 0 .763.112 1.108.265l.052-.61Zm3.501 5.099h.638V8.023h1.168v-.547h-1.168v-.448c0-.619-.091-1.565.784-1.565.182 0 .375.041.507.113l.041-.558c-.124-.072-.397-.102-.6-.102-1.33 0-1.37 1.096-1.37 2.184v.376h-1.047v.547h1.047v4.632Zm7.079-5.179h-.64v2.864c0 .864-.364 1.889-1.534 1.889-.884 0-1.228-.628-1.228-1.604V7.476h-.64v3.311c0 1.138.487 1.991 1.767 1.991 1.078 0 1.463-.578 1.676-1.046h.021v.923h.619c-.041-.416-.041-.822-.041-1.218V7.476Zm1.721 5.179h.638V9.79c0-.862.366-1.889 1.535-1.889.884 0 1.229.63 1.229 1.605v3.149h.64V9.344c0-1.138-.488-1.99-1.767-1.99-1.077 0-1.464.578-1.677 1.045h-.02v-.923h-.619c.041.417.041.823.041 1.219v3.96Zm9.892-7.618h-.637v3.312h-.021c-.092-.255-.6-.995-1.616-.995-1.525 0-2.132 1.137-2.132 2.712 0 1.535.71 2.712 2.132 2.712.742 0 1.27-.285 1.616-.944h.021v.821h.637V5.037Zm-3.707 5.029c0-1.006.315-2.165 1.534-2.165 1.138 0 1.536 1.219 1.536 2.165 0 .944-.398 2.163-1.536 2.163-1.219 0-1.534-1.158-1.534-2.163Zm5.385 2.589h.638V7.476h-.638v5.179Zm0-6.561h.639v-.852h-.639v.852Zm2.35 6.561h.64V9.79c0-.862.364-1.889 1.534-1.889.883 0 1.231.63 1.231 1.605v3.149h.637V9.344c0-1.138-.486-1.99-1.766-1.99-1.078 0-1.464.578-1.677 1.045h-.02v-.923h-.619c.04.417.04.823.04 1.219v3.96Zm6.171-2.589c0-1.006.317-2.165 1.536-2.165 1.168 0 1.533.915 1.533 2.165 0 .944-.416 2.042-1.574 2.042-1.088 0-1.495-1.026-1.495-2.042Zm3.707-2.59h-.638v.588h-.02c-.478-.619-.926-.71-1.617-.71-1.521 0-2.131 1.137-2.131 2.712 0 1.148.528 2.589 2.182 2.589.66 0 1.23-.264 1.576-1.014h.02c0 1.461-.143 2.662-1.788 2.662a3.49 3.49 0 0 1-1.523-.367l-.051.64c.264.081.885.274 1.565.274 1.777 0 2.425-1.178 2.425-2.621V7.476Zm3.461 5.179h.639v-.821h.022c.345.659.873.944 1.615.944 1.424 0 2.133-1.177 2.133-2.712 0-1.575-.61-2.712-2.133-2.712-1.016 0-1.526.74-1.615.995h-.022V5.037h-.639v7.618Zm3.709-2.589c0 1.005-.314 2.163-1.535 2.163-1.138 0-1.535-1.219-1.535-2.163 0-.946.367-2.165 1.535-2.165 1.221 0 1.535 1.159 1.535 2.165Zm2.084-2.59h-.701l1.836 5.242-.131.457c-.203.67-.385 1.128-.935 1.128-.233 0-.356-.041-.475-.082l-.062.548c.212.05.457.081.691.081.721 0 1.086-.71 1.33-1.421l2.07-5.953h-.67l-1.492 4.317h-.009l-1.452-4.317ZM7.226 33.145l.055 1.652-3.032-.775-.004-.016 2.981-.861Zm2.805-.871-.06-1.735-7.145 2.563.072 1.875 7.304 2.153-.061-1.642-1.626-.452-.083-2.253 1.599-.509Zm-4.885-7.138.16-.496c.279-.862.891-.763 1.175-.673.497.157.806.619.607 1.24l-.171.499-1.771-.57Zm5.21 3.409.524-1.619-2.777-.901c.188-.59.26-.805 1.286-.767l2.014.064.547-1.694-2.471-.018c-.909-.007-1.243.1-1.466.576l-.021-.004c.166-1.416-.956-1.818-1.241-1.913-1.273-.411-2.077.388-2.446 1.526l-.826 2.512 6.877 2.238Zm2.998-7.131.977-1.39-4.85-3.399.898-1.282-1.069-.747-2.781 3.965 1.069.749.905-1.291 4.851 3.395m1.403-11.746c-.562.299-.957.476-1.46.903-1.854 1.553-.739 3.021-.592 3.187 1.652 1.982 3.395-.375 4.297.692.377.452.154.994-.259 1.339-.486.412-.981.505-1.505.677l.836 1.142a6.952 6.952 0 0 0 1.687-1.024c1.105-.926 1.405-2.257.522-3.306-1.647-1.965-3.434.333-4.284-.675-.343-.412-.189-.871.235-1.22.347-.296.893-.533 1.331-.635l-.808-1.08m13.078-5.169c-.295-.054-.88-.161-1.932.086-1.431.332-2.93 1.757-2.331 4.339.517 2.233 2.199 3.361 4.128 2.916.897-.209 1.443-.506 1.702-.66l-.401-1.462c-.144.111-.546.525-1.353.709-1.051.245-2.06-.503-2.377-1.872-.333-1.419.169-2.486 1.271-2.742.761-.175 1.25-.008 1.535.072l-.242-1.386m5.536 3.242c.175-1.374.652-2.456 1.623-2.338.98.121 1.191 1.283 1.022 2.658-.171 1.378-.658 2.458-1.63 2.335-.978-.117-1.182-1.279-1.015-2.655m-1.726-.216c-.257 2.109.524 3.831 2.589 4.085 2.065.256 3.246-1.223 3.506-3.333.261-2.109-.526-3.834-2.598-4.083-2.062-.261-3.237 1.222-3.497 3.331m8.513 2.526c-.809 1.593-.328 2.905 1.117 3.648 1.455.734 2.797.356 3.608-1.243l2.094-4.103-1.509-.772-2.225 4.342c-.324.649-.764.922-1.368.613-.613-.312-.651-.831-.318-1.48l2.207-4.343-1.503-.77-2.103 4.108m5.259 5.91 1.027 1.073 3.775-3.63.014.016-2.322 5.123 1.4 1.445 5.196-5.016-1.045-1.077-3.594 3.484-.015-.016 2.138-4.99-1.372-1.436-5.202 5.024m13.356 7.057c-.017-.308-.042-.906-.521-1.872-.645-1.321-2.375-2.46-4.758-1.296-2.06 1.001-2.778 2.893-1.916 4.675.407.826.82 1.296 1.033 1.514l1.325-.716c-.137-.113-.621-.418-.982-1.168-.476-.962.023-2.121 1.277-2.739 1.316-.64 2.463-.382 2.963.635.343.697.29 1.209.271 1.506l1.308-.539m-5.818 5.467.297 1.668 7.109-1.251-.293-1.664-7.113 1.247m.498 4.279-.279 4.073 1.305.1.164-2.383 5.907.413.119-1.71-7.216-.493M9.3 49.634l2.045 2.428.458-.401-1.634-1.923 2.192-1.844 1.486 1.784.456-.399-1.483-1.78 1.971-1.659 1.555 1.871.463-.396-1.972-2.345L9.3 49.634m5.134 5.369.499.326 3.564-5.297.018.012-1.048 6.986.683.477 4.041-6.006-.499-.328L18.1 56.51l-.017-.012 1.076-7.024-.685-.477-4.04 6.006m11.19 1.861 1.24.359-.693 2.436c-.362.076-.658.032-1.016-.058-1.834-.511-1.926-2.396-1.562-3.665.632-2.187 2.18-2.574 3.169-2.28.531.155 1.131.55 1.337.847l.23-.663c-.178-.172-.806-.6-1.368-.766-1.945-.552-3.495.835-4.006 2.61-.376 1.323-.437 3.79 1.999 4.491.574.165 1.134.217 1.715.081l.979-3.435-1.859-.521-.165.564m5.245 4.052h2.993l-.002-.591h-2.351v-6.628h-.64v7.219m6.749-7.364.019-.003 2.273 3.443-2.401.713.109-4.153Zm-.817 7.049.612-.179.08-2.113 2.772-.776 1.154 1.739.654-.185-4.303-6.306-.655.194-.314 7.626Zm8.361-3.068.503-.34-3.467-5.348.016-.009 6.022 3.69.69-.427-3.934-6.084-.508.342 3.495 5.384-.021.009-6.028-3.729-.7.431 3.932 6.081m2.528-10.421.335-.413c1.483-1.927 3.08-.918 3.977-.199 1.424 1.109 1.824 2.544.836 3.809l-.408.535-4.74-3.732Zm4.821 4.587.69-.864c1.428-1.85.788-3.659-.868-4.954-1.837-1.441-3.46-1.266-4.935.634l-.587.734 5.7 4.45Zm22.909 9.377h.748V4.089h-.748z"/>
</svg>
