<svg xmlns="http://www.w3.org/2000/svg" fill="none" viewBox="0 0 187 58">
  <g fill="#231F20" clip-path="url(#a)">
    <path d="M186.101 39.49v-3.95h-.867c-.062.68-.093.988-.651.988-.247 0-.402-.062-.712-.247a5.24 5.24 0 0 0-2.447-.586c-2.912 0-4.151 2.129-4.151 4.164 0 3.024 2.2 3.733 4.182 4.38 1.27.371 3.5.65 3.5 2.284 0 .987-1.022 1.975-2.632 1.975-1.023 0-2.108-.402-2.881-1.142-1.054-.956-1.24-2.097-1.425-3.084h-.899v4.689h.899c-.031-.217-.062-.834.495-.834.217 0 .496.185.992.463.185.123 1.301.741 2.725.741 3.377 0 4.771-2.623 4.771-4.659 0-2.838-2.386-3.517-3.873-3.948l-.929-.247c-.867-.216-1.889-.587-2.168-.834a1.69 1.69 0 0 1-.588-1.264c0-.957.898-1.82 2.198-1.82.775 0 1.674.277 2.293.74.899.679 1.084 1.389 1.301 2.19h.867Zm-18.832-.371c.123-1.234.309-2.715 2.477-2.715 2.014 0 2.107 1.512 2.2 2.592v1.79h-4.709l.032-1.667Zm8.766 2.561c-.217-1.388-.434-2.746-1.672-4.073-1.178-1.264-2.883-1.912-4.617-1.912-4.026 0-6.845 2.93-6.845 6.787 0 3.732 2.695 6.85 7.094 6.85 3.747 0 5.172-2.561 5.884-3.92l-.774-.37c-.774 1.235-2.075 3.333-4.708 3.333-3.098 0-3.191-3.085-3.221-4.258-.031-.833 0-1.635 0-2.437h8.859Zm-19.979-11.292c0 1.235.991 2.222 2.23 2.222 1.238 0 2.23-.987 2.23-2.222a2.217 2.217 0 0 0-2.23-2.22c-1.239 0-2.23.986-2.23 2.22Zm-1.394 6.479h2.106v11.291h-2.106v.803h7.961v-.803h-1.983v-12.37c-1.456.092-2.261.153-3.035.215-.806.03-1.549.061-2.943.061v.803Zm-4.801 5.368c.062 3.733-.341 6.077-2.416 6.077-1.177 0-2.324-1.017-2.912-2.16-.558-1.11-.651-2.374-.651-3.608 0-3.456 1.146-4.566 1.858-5.122.465-.34.992-.586 1.58-.586 1.456 0 1.952 1.265 2.169 2.098.279 1.08.34 2.19.372 3.3Zm-5.731-6.447c-1.983.276-2.292.276-6.009.276v.834h2.013v20.238h-2.013V58h8.456v-.864h-2.509V47.109c.837.987 1.921 2.222 4.182 2.222 2.602 0 3.934-1.573 4.522-2.345 1.208-1.635 1.363-3.116 1.363-4.258 0-5.028-3.438-7.033-6.071-7.033-2.137 0-3.159 1.233-3.996 2.252l.062-2.16Zm-10.191 6.478c.031 3.024.031 6.417-3.035 6.417-1.363 0-2.199-.802-2.572-1.543-.247-.432-.557-1.08-.557-4.75 0-2.716.062-5.924 3.098-5.924 1.239 0 2.168.586 2.664 1.697.186.4.371.833.402 4.103Zm4.213-.031c-.31-4.874-4.429-6.54-7.248-6.54-3.16 0-7.434 1.974-7.434 6.756 0 3.455 2.54 6.848 7.526 6.848 4.492 0 6.351-2.992 6.784-4.194.342-.896.434-1.913.372-2.87Zm-21.403-6.447c-2.014.215-4.059.276-6.103.276v.803h2.107v11.291h-2.107v.803h8.58v-.803h-2.57v-5.86c0-1.235.247-2.901 1.238-4.259 0 0 .991-1.265 1.425-1.265.217 0 .434.154.434.309 0 .093-.093.185-.156.308-.185.247-.402.587-.402 1.142 0 .895.713 1.82 1.982 1.82 1.581 0 2.076-1.234 2.076-2.098 0-1.203-.805-2.56-2.726-2.56-1.27 0-2.168.525-2.88 1.357-.373.401-.651.895-.961 1.388l.063-2.652Zm-16.913-8.793c-.526.061-1.147.154-2.88.246-1.271.062-2.325.062-3.16.062v.833h2.23v20.022h-2.23v.803h7.898v-.803h-1.889v-5.614c.031-1.759.061-3.733 1.827-4.937a3.008 3.008 0 0 1 1.766-.555c1.703 0 1.859 1.388 1.827 2.962v8.144h-1.703v.803h7.589v-.803h-2.044V39.89c0-1.018.03-2.066-.837-3.054-.434-.493-1.393-1.141-3.252-1.141-2.943 0-4.43 1.758-5.142 2.622V26.995Zm-9.293 3.887h-.867c-1.797 3.887-3.717 4.844-5.11 5.492v.493h2.23l-.063 8.824c0 1.357.031 3.64 3.16 3.64 3.221 0 3.964-2.222 4.398-3.702l-.867-.185c-.372 1.234-.867 2.252-1.797 2.252-1.053 0-1.084-1.142-1.084-1.883v-8.946h2.695v-.803h-2.695v-5.182Zm-16.33 4.905c-2.292.093-4.089.277-5.978.277v.803h2.106v11.291h-2.106v.803h7.96v-.803h-1.982V42.42c0-1.419 0-1.974.124-2.499.434-1.758 2.168-2.808 3.252-2.808 1.89 0 1.89 1.667 1.89 3.394v7.651h-1.735v.803h7.62v-.803H83.32v-8.237c0-1.358 0-3.27-2.509-3.98-.836-.246-1.549-.246-1.766-.246-.619 0-1.425.093-2.354.463-1.27.524-1.797 1.11-2.478 1.912v-2.282Zm-12.11 8.73c0 .803.03 1.76-.868 2.5-.372.278-.837.493-1.363.493-1.084 0-2.107-.832-2.107-2.375 0-2.746 2.695-2.9 4.337-2.993v2.376Zm3.685-4.78c0-1.08.031-2.592-2.075-3.487-.898-.37-1.983-.555-3.098-.555-3.004 0-5.42 1.388-5.42 3.362 0 .987.712 1.698 1.734 1.698 1.053 0 1.766-.803 1.766-1.729 0-.215-.062-.432-.155-.617-.093-.246-.28-.431-.372-.678a.705.705 0 0 1-.093-.34c0-.278.465-.894 1.859-.894 2.076 0 2.168 1.048 2.168 2.344v2.438c-1.92.185-4.46.401-6.195 1.666-1.363.987-1.797 2.252-1.797 3.24 0 .955.465 3.114 3.655 3.114 2.416 0 3.717-1.418 4.337-2.128.403.802 1.084 2.128 2.85 2.128 1.518 0 2.478-.955 3.035-1.541l-.495-.68c-.248.186-.558.463-.93.463-.743 0-.774-.895-.774-1.604v-6.2ZM51.292 26.994c-.991.185-2.23.277-3.346.308-1.115.03-2.137.03-2.725.03v.865h2.168v19.96H45.22v.803h8.115v-.803h-2.044V26.995Zm-13.205 3.393c0 1.235.991 2.222 2.23 2.222 1.24 0 2.23-.987 2.23-2.222 0-1.234-.99-2.22-2.23-2.22-1.239 0-2.23.986-2.23 2.22Zm-1.394 6.479H38.8v11.291h-2.106v.803h7.96v-.803h-1.982v-12.37c-1.456.092-2.261.153-3.036.215-.806.03-1.549.061-2.943.061v.803Zm-11.85-9.872c-.527.061-1.147.154-2.881.246-1.27.062-2.323.062-3.16.062v.833h2.23v20.022h-2.23v.803h7.899v-.803h-1.89v-5.614c.031-1.759.062-3.733 1.828-4.937a3.007 3.007 0 0 1 1.766-.555c1.703 0 1.858 1.388 1.827 2.962v8.144h-1.704v.803h7.59v-.803h-2.045V39.89c0-1.018.031-2.066-.836-3.054-.434-.493-1.394-1.141-3.253-1.141-2.943 0-4.43 1.758-5.142 2.622V26.995Zm-17.626.987h2.757c.991 0 2.354.062 3.253 1.265.588.802.743 2.036.743 3.733 0 2.654-.774 3.764-1.239 4.103-.867.648-2.137.802-2.664.802h-2.85v-9.903Zm0 10.798h4.213c1.642 0 3.686-.155 5.297-1.327 2.044-1.48 2.137-3.579 2.137-4.35 0-1.758-.743-3.516-2.168-4.596-1.673-1.235-3.686-1.266-5.39-1.327H0v.802h2.633v20.176H0v.803h10.129v-.803H7.217V38.78ZM137.428 24.558c.65 0 2.199-.031 2.199 1.697 0 1.912-2.199 3.578-5.886 3.578-3.406 0-4.584-1.758-4.584-3.147 0-1.018.495-1.542 1.053-2.128h7.218Zm-5.668-11.076c0-2.19 0-4.041 2.106-4.041.278 0 1.238 0 1.734 1.018.31.679.31 1.357.31 3.146 0 2.191 0 3.98-2.013 3.98-2.045 0-2.137-1.666-2.137-4.103Zm-1.209 7.312c-1.022 0-1.921-.031-1.921-1.018 0-.988 1.209-1.635 2.169-2.006.65.309 1.487.71 3.16.71 3.128 0 5.761-1.697 5.761-4.998 0-1.049-.34-1.635-.682-2.252.093-.432.186-.586.342-.586.154 0 .185 0 .433.308.186.247.526.401.898.401.898 0 1.332-.678 1.332-1.388 0-.894-.681-1.419-1.456-1.419a2.15 2.15 0 0 0-1.238.432c-.59.432-.744 1.018-.899 1.48-.867-.74-2.044-1.758-4.461-1.758-2.818 0-5.978 1.574-5.978 4.936 0 2.067 1.301 3.085 2.106 3.733-.743.247-3.159 1.111-3.159 3.919 0 .462.062 1.326.836 2.128.589.648 1.054.771 1.704.895-.868.308-2.509.864-2.509 2.591 0 1.913 2.292 3.918 6.752 3.918 4.245 0 7.404-2.098 7.404-5.83 0-.957-.155-1.759-.774-2.623-1.116-1.604-2.262-1.573-4.492-1.573h-5.328Zm-9.85-12.001c-2.013.216-4.058.278-6.102.278v.801h2.106v11.292h-2.106v.802h8.58v-.802h-2.571v-5.862c0-1.234.248-2.9 1.239-4.257 0 0 .991-1.265 1.425-1.265.216 0 .434.155.434.309 0 .092-.093.185-.155.308-.186.247-.403.586-.403 1.142 0 .894.712 1.82 1.983 1.82 1.579 0 2.075-1.234 2.075-2.098 0-1.203-.806-2.56-2.726-2.56-1.27 0-2.168.524-2.881 1.357-.371.4-.651.894-.96 1.388l.062-2.653Zm-15.116 3.332c.124-1.235.31-2.715 2.479-2.715 2.013 0 2.106 1.511 2.199 2.591v1.79h-4.708l.03-1.666Zm8.766 2.56c-.217-1.388-.433-2.745-1.672-4.072-1.177-1.265-2.881-1.913-4.615-1.913-4.028 0-6.846 2.931-6.846 6.788 0 3.732 2.694 6.848 7.093 6.848 3.748 0 5.173-2.56 5.885-3.918l-.774-.37c-.775 1.234-2.075 3.332-4.708 3.332-3.098 0-3.191-3.085-3.222-4.258-.031-.833 0-1.634 0-2.437h8.859Zm-18.522.525c0 3.424-.094 6.108-2.572 6.108-1.115 0-2.323-.648-3.066-1.82-.775-1.203-.93-2.9-.93-3.95 0-.832.124-2.529.806-3.763.65-1.172 1.982-2.128 3.19-2.128 1.92 0 2.23 1.758 2.354 2.375.156.864.218 2.283.218 3.178ZM89.416 0c-1.3.216-2.726.309-3.345.34h-2.695v.863h2.168v19.961h-2.168v.802h6.01v-1.943c.805.987 2.106 2.283 4.553 2.283 1.765 0 3.345-.525 4.677-2.253 1.394-1.758 1.487-3.486 1.487-4.38 0-4.998-3.439-6.973-6.227-6.973-2.384 0-3.53 1.235-4.46 2.252V0ZM64.543 8.793c-1.734.216-2.385.278-5.916.278v.801h2.044v11.292h-2.044v.802h7.806v-.802h-1.92v-6.54c.092-1.45.154-2.469.897-3.394.527-.617 1.333-1.11 2.262-1.11 1.672 0 1.858 1.45 1.858 3.208v7.836h-1.673v.802h7.28v-.802h-1.859v-6.016c0-1.635.062-3.023 1.209-4.134.619-.586 1.362-.925 2.044-.925 1.765 0 1.765 1.511 1.765 3.085v7.99h-1.703v.802h7.465v-.802h-1.92v-8.083c-.094-1.666-.124-4.38-4.213-4.38-3.005 0-4.182 1.881-4.647 2.652-.712-1.326-1.487-2.684-4.275-2.684-2.415 0-3.561 1.327-4.46 2.376V8.793Zm-10.407 6.479c.03 3.023.03 6.417-3.036 6.417-1.363 0-2.2-.803-2.57-1.543-.248-.432-.558-1.08-.558-4.751 0-2.715.062-5.924 3.097-5.924 1.239 0 2.168.587 2.664 1.697.186.402.372.833.403 4.104Zm4.212-.031c-.31-4.875-4.43-6.54-7.248-6.54-3.16 0-7.434 1.974-7.434 6.756 0 3.455 2.54 6.849 7.527 6.849 4.491 0 6.35-2.993 6.784-4.196.34-.895.433-1.913.371-2.87Zm-20.031.03c.03 3.024.03 6.418-3.036 6.418-1.363 0-2.2-.803-2.57-1.543-.249-.432-.558-1.08-.558-4.751 0-2.715.062-5.924 3.097-5.924 1.24 0 2.168.587 2.664 1.697.186.402.371.833.403 4.104Zm4.213-.03c-.31-4.875-4.43-6.54-7.25-6.54-3.159 0-7.433 1.974-7.433 6.756 0 3.455 2.54 6.849 7.527 6.849 4.491 0 6.35-2.993 6.784-4.196.34-.895.433-1.913.372-2.87ZM25.462 0c-.991.184-2.23.277-3.345.308-1.116.03-2.138.03-2.726.03v.864h2.168v19.961h-2.168v.802h8.116v-.802h-2.045V0ZM7.28 1.048h2.416c2.54 0 3.84.617 3.84 4.69 0 3.61-1.3 4.473-3.716 4.473H7.28V1.049Zm0 10.027h2.88c.899 0 2.2.092 3.098 1.203.744.895.868 2.345.868 3.918 0 1.327-.094 2.56-.651 3.486-.836 1.358-2.076 1.481-3.098 1.481H7.28V11.076ZM.062.186v.802h2.633v20.176H.063v.802h9.664c3.252-.03 7.155-.03 8.828-3.147.496-.925.62-1.881.62-2.622 0-3.147-2.293-4.69-4.43-5.245-.743-.185-1.518-.277-2.323-.37a15.838 15.838 0 0 0 2.106-.4c2.137-.649 3.624-2.222 3.624-4.598 0-1.573-.557-3.208-2.509-4.35C13.94.278 11.957.216 10.161.185H.063Z"/>
  </g>
  <defs>
    <clipPath id="a">
      <path fill="#fff" d="M0 0h187v58H0z"/>
    </clipPath>
  </defs>
</svg>
