<svg xmlns="http://www.w3.org/2000/svg" fill="#000" viewBox="0 0 259 70">
  <g clip-path="url(#a)">
    <mask id="b" width="259" height="32" x="0" y="0" maskUnits="userSpaceOnUse" style="mask-type:luminance">
      <path fill="#fff" d="M259 0H0v31.304h259V0Z"/>
    </mask>
    <g fill="#000" mask="url(#b)">
      <path d="M242.956 0v.086l-2.794 2.734c-.282.261-.423.608-.423 1.042v22.784c0 .434.141.782.423 1.043l2.794 2.733v.088h-14.097v-.088l2.838-2.733c.253-.26.38-.609.38-1.043V3.862c0-.434-.127-.78-.38-1.042L228.86.086V0h14.096Zm15.874 0v.086l-7.025 4.515c-.877.55-1.595 1.128-2.161 1.734l-3.894 4.21 9.525 15.841a6.555 6.555 0 0 0 1.271 1.605l2.454 2.43v.089h-10.117l-8.805-14.887 8.847-9.851c.226-.26.34-.456.34-.587 0-.13-.114-.353-.34-.673L245.708.086V0h13.122ZM207.312 0l14.529 22.914V7.29c0-.491-.171-.955-.512-1.39L216.97.087V0h10.641v.086L223.294 5.9c-.37.521-.556.985-.556 1.39V30.51h-5.213L202.782 7.333V23.22c0 .432.171.881.512 1.345l4.403 5.858v.088h-10.642v-.088l4.273-5.815c.371-.492.557-.956.557-1.388V6.813c0-.578-.129-1.041-.385-1.39L197.226.087V0h10.086ZM185.806 0l7.981 25.736c.141.491.427 1.085.853 1.779l1.792 2.907v.088H183.8v-.088l2.048-2.907c.199-.288.228-.68.087-1.172l-2.008-6.467h-9.303l-1.109 3.472c-.114.348-.15.593-.106.739.042.144.19.404.448.78l3.797 5.555v.088h-10.115v-.088l4.097-5.555c.456-.608.784-1.216.983-1.822l5.933-18.489c.141-.405.196-.686.169-.845-.028-.159-.169-.384-.427-.674L175.778.086V0h10.028Zm-6.444 4.947-4.482 14.061h8.792l-4.31-14.061ZM156.744 0c3.394 0 6.025.578 7.892 1.736 1.866 1.156 2.801 2.908 2.801 5.25 0 2.17-.786 3.893-2.355 5.165-1.571 1.274-3.714 2.026-6.43 2.256v.088c2.914.058 5.262.738 7.044 2.04 1.783 1.302 2.673 3.11 2.673 5.425 0 2.69-.976 4.79-2.928 6.292-1.951 1.506-4.611 2.258-7.976 2.258h-15.91v-.088l2.842-2.733c.255-.26.382-.608.382-1.042V3.862c0-.435-.127-.78-.382-1.042L141.555.086V0h15.189Zm-2.207 15.059h-2.077v13.714c0 .406.055.652.168.738.114.088.397.13.848.13h1.189c3.649 0 5.473-2.474 5.473-7.421 0-2.372-.445-4.16-1.337-5.36-.89-1.2-2.312-1.801-4.264-1.801Zm.128-14.191h-1.442c-.312 0-.517.05-.617.15-.098.103-.146.342-.146.718V14.19h2.035c1.584 0 2.8-.6 3.649-1.8.848-1.2 1.273-2.886 1.273-5.057 0-1.965-.41-3.536-1.231-4.71-.82-1.17-1.993-1.755-3.521-1.755ZM122.12 0v.086l-2.781 2.734c-.281.261-.421.607-.421 1.042v10.59h9.775V3.862c0-.435-.142-.78-.422-1.042l-2.78-2.734V0h13.986v.086l-2.78 2.734c-.253.261-.378.607-.378 1.042v22.785c0 .434.125.782.378 1.042l2.78 2.733v.088h-13.986v-.088l2.78-2.733c.28-.289.422-.637.422-1.042V15.319h-9.775v11.328c0 .434.14.782.421 1.042l2.781 2.733v.088h-14.03v-.088l2.822-2.733c.253-.26.38-.608.38-1.042V3.862c0-.435-.127-.78-.38-1.042L108.09.086V0h14.03ZM67.569 0v.087l-2.637 2.796c-.283.261-.425.61-.425 1.047v15.854c0 3.436.546 5.912 1.637 7.426 1.09 1.513 2.713 2.27 4.869 2.27 2.04 0 3.627-.83 4.761-2.489 1.133-1.66 1.7-4.12 1.7-7.382V7.337c0-.525-.184-1.005-.552-1.442L72.756.087V0h33.67v8.9h-.084s-4.859-6.802-5.078-7.118c-.221-.317-.491-.727-.617-.8-.128-.072-.299-.109-.639-.109h-4.597v25.635c0 .467.156.845.468 1.135l3.147 2.97v.088h-14.88v-.089l3.146-2.97c.312-.319.468-.697.468-1.134V.874h-4.632c-.34 0-.511.037-.64.108a.782.782 0 0 0-.157.16l-.416.579-.042.061c-.029.042-.11.154-.225.312L78.92 5.896c-.37.436-.553.916-.553 1.442v12.185c0 3.786-.78 6.668-2.339 8.647-1.558 1.98-4.109 2.971-7.651 2.971-4.055 0-6.995-.837-8.824-2.512-1.828-1.674-2.742-4.462-2.742-8.363V3.93c0-.437-.142-.786-.425-1.047L53.836.087V0h13.733ZM38.353 0c4.574 0 8.124 1.328 10.653 3.984C51.534 6.64 52.8 10.509 52.8 15.59c0 5.054-1.266 8.909-3.794 11.564-2.53 2.658-6.08 3.986-10.653 3.986-4.576 0-8.127-1.328-10.655-3.986-2.53-2.655-3.792-6.51-3.792-11.564 0-5.082 1.262-8.95 3.792-11.607C30.226 1.328 33.777 0 38.353 0Zm0 .817c-1.876 0-3.29 1.156-4.241 3.468-.953 2.311-1.428 6.066-1.428 11.263s.475 8.959 1.428 11.285c.951 2.326 2.365 3.49 4.24 3.49s3.288-1.163 4.24-3.49c.951-2.326 1.428-6.088 1.428-11.285s-.477-8.952-1.428-11.263C41.64 1.973 40.227.817 38.352.817ZM11.109 0c2.763 0 5.496.33 8.203.99v9.82h-.087L13.46 1.508c-.228-.345-.514-.546-.854-.604a7.18 7.18 0 0 0-1.24-.087c-1.538 0-2.77.418-3.695 1.25-.927.833-1.39 1.996-1.39 3.488 0 1.265.42 2.284 1.26 3.058.84.777 2.229 1.638 4.168 2.585l1.58.776c1.11.546 1.993.998 2.648 1.357.656.358 1.388.833 2.2 1.42.812.59 1.439 1.17 1.88 1.745.443.575.82 1.279 1.132 2.11a7.66 7.66 0 0 1 .47 2.715c0 2.928-1.096 5.297-3.29 7.106-2.193 1.81-5.083 2.714-8.672 2.714-3.105 0-6.024-.403-8.76-1.206V19.64h.087l5.64 9.82c.256.46.569.718.939.776.427.057 1.026.085 1.795.085 1.765 0 3.176-.43 4.23-1.292 1.053-.861 1.58-2.082 1.58-3.662 0-1.348-.44-2.433-1.325-3.252-.882-.816-2.407-1.744-4.57-2.776l-1.325-.647c-1.14-.545-2.109-1.07-2.906-1.573a17.791 17.791 0 0 1-2.456-1.894A7.604 7.604 0 0 1 .662 12.51C.22 11.466 0 10.294 0 9.002c0-2.727 1.011-4.91 3.033-6.546C5.055.817 7.748 0 11.11 0Z"/>
    </g>
    <mask id="c" width="260" height="33" x="48" y="38" maskUnits="userSpaceOnUse" style="mask-type:luminance">
      <path fill="#fff" d="M307.641 38.716h-259V70.02h259V38.716Z"/>
    </mask>
    <g fill="#000" mask="url(#c)">
      <path d="M209.56 39.137V49.64h-.086l-5.51-8.94c-.285-.464-.683-.695-1.196-.695h-4.4c-.313 0-.512.051-.599.153-.084.1-.127.34-.127.715v13.063h2.905c.427-.029.797-.23 1.11-.607l3.845-4.514h.085v11.068h-.085l-3.845-4.515c-.342-.376-.725-.565-1.153-.565h-2.862v13.108c0 .377.043.616.127.717.087.1.286.15.6.15h4.912c.626 0 1.053-.202 1.282-.607l5.296-9.2h.086v10.676h-23.281v-.086l2.862-2.735c.256-.26.385-.607.385-1.042V42.998c0-.434-.129-.78-.385-1.04l-2.862-2.734v-.087h22.896ZM173.356 39.137c2.865 0 5.225.636 7.083 1.91 1.858 1.272 2.786 3.24 2.786 5.902 0 2.315-.815 4.16-2.445 5.533-1.632 1.376-3.921 2.177-6.87 2.41v.085l5.487 1.65 3.872 9.374c.196.522.579 1.071 1.148 1.65l1.83 1.91v.085h-9.955l-5.276-13.713c-.168-.348-.482-.522-.935-.522h-2.211v10.417c0 .434.141.78.425 1.042l2.85 2.69v.087h-14.207v-.086l2.85-2.735c.254-.26.382-.607.382-1.042V42.998c0-.434-.128-.78-.382-1.04l-2.85-2.734v-.087h16.418Zm-3.104.868h-1.617c-.34 0-.552.051-.638.152-.085.101-.127.325-.127.673v13.713h2.211c3.29 0 4.935-2.372 4.935-7.117 0-4.948-1.588-7.421-4.764-7.421ZM110.84 39.136l14.496 22.917V46.427c0-.49-.171-.954-.511-1.388l-4.348-5.815v-.087h34.589v8.844h-.084s-4.873-6.759-5.094-7.073c-.22-.315-.49-.723-.617-.796-.129-.07-.301-.107-.641-.107h-4.61v25.473c0 .463.157.839.469 1.129l3.156 2.95v.087h-14.923v-.087l3.156-2.95a1.56 1.56 0 0 0 .469-1.129V40.005h-5.25c-.341 0-.512.036-.64.107-.129.073-.398.48-.619.796-.155.221-1.711 2.316-2.617 3.535l-.434.596c-.37.52-.556.984-.556 1.388v23.22h-5.201L106.32 46.47v15.886c0 .434.171.883.511 1.345l4.393 5.86v.085h-10.619v-.086l4.265-5.816c.369-.49.555-.954.555-1.388V45.95c0-.578-.129-1.042-.384-1.388l-4.264-5.338v-.087h10.063ZM97.728 39.137V49.64h-.085l-5.511-8.94c-.284-.464-.683-.695-1.195-.695h-4.4c-.314 0-.513.051-.598.153-.086.1-.128.34-.128.715v13.063h2.905c.428-.029.796-.23 1.11-.607l3.845-4.514h.085v11.068h-.085l-3.844-4.515c-.343-.376-.727-.565-1.155-.565h-2.861v13.108c0 .377.042.616.128.717.085.1.284.15.599.15h4.91c.627 0 1.054-.202 1.283-.607l5.297-9.2h.085v10.676H74.832v-.086l2.863-2.735c.256-.26.384-.607.384-1.042V42.998c0-.434-.128-.78-.384-1.04l-2.863-2.734v-.087h22.896ZM63.138 38.716c3.165 0 6.231.273 9.2.819V50.13h-.087l-6.443-9.907c-.281-.459-.749-.69-1.398-.69h-.594c-4.296 0-6.442 4.94-6.442 14.818 0 9.792 2.176 14.687 6.526 14.687h.468c.65 0 1.115-.2 1.398-.602l6.485-10.166h.086v10.812c-2.77.516-5.78.774-9.029.774-4.917 0-8.592-1.371-11.022-4.114-2.43-2.74-3.645-6.538-3.645-11.391 0-4.824 1.257-8.637 3.773-11.437 2.514-2.798 6.088-4.2 10.724-4.2Z"/>
    </g>
  </g>
  <defs>
    <clipPath id="a">
      <path fill="#fff" d="M0 0h259v70H0z"/>
    </clipPath>
  </defs>
</svg>
